<svg width="150" height="136" viewBox="0 0 150 136" fill="none" xmlns="http://www.w3.org/2000/svg">
<circle opacity="0.1" cx="81.7903" cy="68.1104" r="67.5" fill="url(#paint0_linear_10908_805)"/>
<path fill-rule="evenodd" clip-rule="evenodd" d="M76.7133 67.1118C64.9337 67.1118 55.3844 75.4905 55.3844 85.8261V85.8739C55.3844 96.2095 64.9337 104.588 76.7133 104.588H108.167C109.342 104.588 110.495 104.505 111.618 104.344L117.712 109.509C117.878 109.649 118.099 109.728 118.329 109.728C118.82 109.728 119.218 109.379 119.218 108.948L119.218 101.883C125.379 98.602 129.496 92.6597 129.496 85.8739V85.8261C129.496 75.4905 119.946 67.1118 108.167 67.1118H76.7133Z" fill="#1D4885"/>
<path d="M81.8868 22.2754H36.9757C20.1477 22.2754 6.50592 34.2449 6.50592 49.0101C6.50592 63.7753 20.1477 75.7449 36.9757 75.7449H81.8868C98.7148 75.7449 112.357 63.7753 112.357 49.0101C112.357 34.2449 98.7148 22.2754 81.8868 22.2754Z" fill="url(#paint1_linear_10908_805)"/>
<path fill-rule="evenodd" clip-rule="evenodd" d="M21.1853 67.9678V81.9637C21.1853 82.5789 21.7537 83.0776 22.4549 83.0776C22.7837 83.0776 23.0998 82.9656 23.3364 82.7653L35.0581 72.8417L21.1853 67.9678Z" fill="url(#paint2_linear_10908_805)"/>
<path d="M39.0387 52.3518C41.7557 52.3518 43.9583 50.4193 43.9583 48.0353C43.9583 45.6513 41.7557 43.7188 39.0387 43.7188C36.3217 43.7188 34.1191 45.6513 34.1191 48.0353C34.1191 50.4193 36.3217 52.3518 39.0387 52.3518Z" fill="white"/>
<path d="M59.1932 52.3518C61.9102 52.3518 64.1127 50.4193 64.1127 48.0353C64.1127 45.6513 61.9102 43.7188 59.1932 43.7188C56.4761 43.7188 54.2736 45.6513 54.2736 48.0353C54.2736 50.4193 56.4761 52.3518 59.1932 52.3518Z" fill="white"/>
<path d="M79.8237 52.3518C82.5407 52.3518 84.7433 50.4193 84.7433 48.0353C84.7433 45.6513 82.5407 43.7188 79.8237 43.7188C77.1067 43.7188 74.9041 45.6513 74.9041 48.0353C74.9041 50.4193 77.1067 52.3518 79.8237 52.3518Z" fill="white"/>
<defs>
<linearGradient id="paint0_linear_10908_805" x1="175.873" y1="-203.613" x2="74.6967" y2="150.105" gradientUnits="userSpaceOnUse">
<stop stop-color="#5498FF"/>
<stop offset="0.515625" stop-color="#428EFF"/>
<stop offset="1" stop-color="#297FFF"/>
</linearGradient>
<linearGradient id="paint1_linear_10908_805" x1="133.2" y1="-58.6115" x2="111.749" y2="89.8486" gradientUnits="userSpaceOnUse">
<stop stop-color="#5498FF"/>
<stop offset="0.515625" stop-color="#428EFF"/>
<stop offset="1" stop-color="#297FFF"/>
</linearGradient>
<linearGradient id="paint2_linear_10908_805" x1="37.7898" y1="45.1101" x2="25.6273" y2="84.1499" gradientUnits="userSpaceOnUse">
<stop stop-color="#5498FF"/>
<stop offset="0.515625" stop-color="#428EFF"/>
<stop offset="1" stop-color="#297FFF"/>
</linearGradient>
</defs>
</svg>
