<svg width="24" height="20" viewBox="0 0 24 20" fill="none" xmlns="http://www.w3.org/2000/svg">
<path d="M3 5H5H21" stroke="#E83F5B" stroke-width="2" stroke-linecap="round" stroke-linejoin="round"/>
<path d="M8 4.99996V3.33329C8 2.89127 8.21071 2.46734 8.58579 2.15478C8.96086 1.84222 9.46957 1.66663 10 1.66663H14C14.5304 1.66663 15.0391 1.84222 15.4142 2.15478C15.7893 2.46734 16 2.89127 16 3.33329V4.99996M19 4.99996V16.6666C19 17.1087 18.7893 17.5326 18.4142 17.8451C18.0391 18.1577 17.5304 18.3333 17 18.3333H7C6.46957 18.3333 5.96086 18.1577 5.58579 17.8451C5.21071 17.5326 5 17.1087 5 16.6666V4.99996H19Z" stroke="#E83F5B" stroke-width="2" stroke-linecap="round" stroke-linejoin="round"/>
</svg>
